#Comment line ignore any data following # character 
#Hierarchical Translation and Rotation (.htr) file 
[Header]	
#Header keywords are followed by a single value 
FileType HTR		#Single word string
DataType HTRS		#Translation followed by rotation and scale data
FileVersion 1		#integer
NumSegments 84		#integer
NumFrames 2		#integer
DataFrameRate 30		#integer, data frame rate in this file
EulerRotationOrder ZYX
CalibrationUnits mm
RotationUnits Degrees
GlobalAxisofGravity Y
BoneLengthAxis Y
ScaleFactor 1.00
[SegmentNames&Hierarchy]
#CHILD	PARENT
MASTER GLOBAL
root MASTER
chest root
L_mid_tent01 root
R_mid_tent01 root
spine01 root
Bip01_Neck chest
L_humerus chest
R_humerus chest
weapon_bone chest
Bip01_Head Bip01_Neck
eye_left_bone Bip01_Head
eye_right_bone Bip01_Head
L_forearm L_humerus
L_front_hand L_forearm
L_weapon_bone L_forearm
L_front_hand01_01 L_front_hand
L_front_hand02_01 L_front_hand
L_front_hand03_01 L_front_hand
L_front_hand01_02 L_front_hand01_01
L_front_hand02_02 L_front_hand02_01
L_front_hand03_02 L_front_hand03_01
R_forearm R_humerus
R_front_hand R_forearm
R_weapon_bone R_forearm
R_front_hand01_01 R_front_hand
R_front_hand02_01 R_front_hand
R_front_hand03_01 R_front_hand
R_front_hand01_02 R_front_hand01_01
R_front_hand02_02 R_front_hand02_01
R_front_hand03_02 R_front_hand03_01
null_rope01_connect L_mid_tent01
Rope1_Seg01 null_rope01_connect
Rope1_Seg02 Rope1_Seg01
Rope1_Seg03 Rope1_Seg02
Rope1_Seg04 Rope1_Seg03
Rope1_Seg05 Rope1_Seg04
Rope1_Seg06 Rope1_Seg05
Rope1_Seg07 Rope1_Seg06
Rope1_Seg09 Rope1_Seg07
L_mid_hand01 Rope1_Seg09
L_mid_hand02 Rope1_Seg09
L_mid_hand03 Rope1_Seg09
null_rope02_connect R_mid_tent01
Rope2_Seg01 null_rope02_connect
Rope2_Seg02 Rope2_Seg01
Rope2_Seg03 Rope2_Seg02
Rope2_Seg04 Rope2_Seg03
Rope2_Seg05 Rope2_Seg04
Rope2_Seg06 Rope2_Seg05
Rope2_Seg07 Rope2_Seg06
Rope2_Seg09 Rope2_Seg07
R_mid_hand01 Rope2_Seg09
R_mid_hand02 Rope2_Seg09
R_mid_hand03 Rope2_Seg09
spine02 spine01
spine03 spine02
pelvis spine03
null_rope03_connect pelvis
null_rope04_connect pelvis
Rope3_Seg01 null_rope03_connect
Rope3_Seg02 Rope3_Seg01
Rope3_Seg03 Rope3_Seg02
Rope3_Seg04 Rope3_Seg03
Rope3_Seg05 Rope3_Seg04
Rope3_Seg06 Rope3_Seg05
Rope3_Seg07 Rope3_Seg06
Rope3_Seg08 Rope3_Seg07
Rope3_Seg09 Rope3_Seg08
R_rear_hand01 Rope3_Seg09
R_rear_hand02 Rope3_Seg09
R_rear_hand03 Rope3_Seg09
Rope4_Seg01 null_rope04_connect
Rope4_Seg02 Rope4_Seg01
Rope4_Seg03 Rope4_Seg02
Rope4_Seg04 Rope4_Seg03
Rope4_Seg05 Rope4_Seg04
Rope4_Seg06 Rope4_Seg05
Rope4_Seg07 Rope4_Seg06
Rope4_Seg08 Rope4_Seg07
Rope4_Seg09 Rope4_Seg08
L_rear_hand01 Rope4_Seg09
L_rear_hand02 Rope4_Seg09
L_rear_hand03 Rope4_Seg09
[BasePosition]
#SegmentName Tx, Ty, Tz, Rx, Ry, Rz, BoneLength
MASTER 0.000000 0.000000 0.000000 -90.000000 0.000000 0.000000 10.000000 
root 0.000000 0.000000 0.000000 0.000000 0.000000 0.000000 10.000000 
chest 0.000000 0.000000 0.000000 0.000000 0.000000 0.000000 10.000000 
L_mid_tent01 0.000000 0.000000 0.000000 0.000000 0.000000 0.000000 10.000000 
R_mid_tent01 0.000000 0.000000 0.000000 0.000000 0.000000 0.000000 10.000000 
spine01 0.000000 0.000000 0.000000 0.000000 0.000000 0.000000 10.000000 
Bip01_Neck 0.000000 0.000000 0.000000 0.000000 0.000000 0.000000 10.000000 
L_humerus 0.000000 0.000000 0.000000 0.000000 0.000000 0.000000 10.000000 
R_humerus 0.000000 0.000000 0.000000 0.000000 0.000000 0.000000 10.000000 
weapon_bone 0.000000 0.000000 0.000000 0.000000 0.000000 0.000000 10.000000 
Bip01_Head 0.000000 0.000000 0.000000 0.000000 0.000000 0.000000 10.000000 
eye_left_bone 0.000000 0.000000 0.000000 0.000000 0.000000 0.000000 10.000000 
eye_right_bone 0.000000 0.000000 0.000000 0.000000 0.000000 0.000000 10.000000 
L_forearm 0.000000 0.000000 0.000000 0.000000 0.000000 0.000000 10.000000 
L_front_hand 0.000000 0.000000 0.000000 0.000000 0.000000 0.000000 10.000000 
L_weapon_bone 0.000000 0.000000 0.000000 0.000000 0.000000 0.000000 10.000000 
L_front_hand01_01 0.000000 0.000000 0.000000 0.000000 0.000000 0.000000 10.000000 
L_front_hand02_01 0.000000 0.000000 0.000000 0.000000 0.000000 0.000000 10.000000 
L_front_hand03_01 0.000000 0.000000 0.000000 0.000000 0.000000 0.000000 10.000000 
L_front_hand01_02 0.000000 0.000000 0.000000 0.000000 0.000000 0.000000 10.000000 
L_front_hand02_02 0.000000 0.000000 0.000000 0.000000 0.000000 0.000000 10.000000 
L_front_hand03_02 0.000000 0.000000 0.000000 0.000000 0.000000 0.000000 10.000000 
R_forearm 0.000000 0.000000 0.000000 0.000000 0.000000 0.000000 10.000000 
R_front_hand 0.000000 0.000000 0.000000 0.000000 0.000000 0.000000 10.000000 
R_weapon_bone 0.000000 0.000000 0.000000 0.000000 0.000000 0.000000 10.000000 
R_front_hand01_01 0.000000 0.000000 0.000000 0.000000 0.000000 0.000000 10.000000 
R_front_hand02_01 0.000000 0.000000 0.000000 0.000000 0.000000 0.000000 10.000000 
R_front_hand03_01 0.000000 0.000000 0.000000 0.000000 0.000000 0.000000 10.000000 
R_front_hand01_02 0.000000 0.000000 0.000000 0.000000 0.000000 0.000000 10.000000 
R_front_hand02_02 0.000000 0.000000 0.000000 0.000000 0.000000 0.000000 10.000000 
R_front_hand03_02 0.000000 0.000000 0.000000 0.000000 0.000000 0.000000 10.000000 
null_rope01_connect 0.000000 0.000000 0.000000 0.000000 0.000000 0.000000 10.000000 
Rope1_Seg01 0.000000 0.000000 0.000000 0.000000 0.000000 0.000000 10.000000 
Rope1_Seg02 0.000000 0.000000 0.000000 0.000000 0.000000 0.000000 10.000000 
Rope1_Seg03 0.000000 0.000000 0.000000 0.000000 0.000000 0.000000 10.000000 
Rope1_Seg04 0.000000 0.000000 0.000000 0.000000 0.000000 0.000000 10.000000 
Rope1_Seg05 0.000000 0.000000 0.000000 0.000000 0.000000 0.000000 10.000000 
Rope1_Seg06 0.000000 0.000000 0.000000 0.000000 0.000000 0.000000 10.000000 
Rope1_Seg07 0.000000 0.000000 0.000000 0.000000 0.000000 0.000000 10.000000 
Rope1_Seg09 0.000000 0.000000 0.000000 0.000000 0.000000 0.000000 10.000000 
L_mid_hand01 0.000000 0.000000 0.000000 0.000000 0.000000 0.000000 10.000000 
L_mid_hand02 0.000000 0.000000 0.000000 0.000000 0.000000 0.000000 10.000000 
L_mid_hand03 0.000000 0.000000 0.000000 0.000000 0.000000 0.000000 10.000000 
null_rope02_connect 0.000000 0.000000 0.000000 0.000000 0.000000 0.000000 10.000000 
Rope2_Seg01 0.000000 0.000000 0.000000 0.000000 0.000000 0.000000 10.000000 
Rope2_Seg02 0.000000 0.000000 0.000000 0.000000 0.000000 0.000000 10.000000 
Rope2_Seg03 0.000000 0.000000 0.000000 0.000000 0.000000 0.000000 10.000000 
Rope2_Seg04 0.000000 0.000000 0.000000 0.000000 0.000000 0.000000 10.000000 
Rope2_Seg05 0.000000 0.000000 0.000000 0.000000 0.000000 0.000000 10.000000 
Rope2_Seg06 0.000000 0.000000 0.000000 0.000000 0.000000 0.000000 10.000000 
Rope2_Seg07 0.000000 0.000000 0.000000 0.000000 0.000000 0.000000 10.000000 
Rope2_Seg09 0.000000 0.000000 0.000000 0.000000 0.000000 0.000000 10.000000 
R_mid_hand01 0.000000 0.000000 0.000000 0.000000 0.000000 0.000000 10.000000 
R_mid_hand02 0.000000 0.000000 0.000000 0.000000 0.000000 0.000000 10.000000 
R_mid_hand03 0.000000 0.000000 0.000000 0.000000 0.000000 0.000000 10.000000 
spine02 0.000000 0.000000 0.000000 0.000000 0.000000 0.000000 10.000000 
spine03 0.000000 0.000000 0.000000 0.000000 0.000000 0.000000 10.000000 
pelvis 0.000000 0.000000 0.000000 0.000000 0.000000 0.000000 10.000000 
null_rope03_connect 0.000000 0.000000 0.000000 0.000000 0.000000 0.000000 10.000000 
null_rope04_connect 0.000000 0.000000 0.000000 0.000000 0.000000 0.000000 10.000000 
Rope3_Seg01 0.000000 0.000000 0.000000 0.000000 0.000000 0.000000 10.000000 
Rope3_Seg02 0.000000 0.000000 0.000000 0.000000 0.000000 0.000000 10.000000 
Rope3_Seg03 0.000000 0.000000 0.000000 0.000000 0.000000 0.000000 10.000000 
Rope3_Seg04 0.000000 0.000000 0.000000 0.000000 0.000000 0.000000 10.000000 
Rope3_Seg05 0.000000 0.000000 0.000000 0.000000 0.000000 0.000000 10.000000 
Rope3_Seg06 0.000000 0.000000 0.000000 0.000000 0.000000 0.000000 10.000000 
Rope3_Seg07 0.000000 0.000000 0.000000 0.000000 0.000000 0.000000 10.000000 
Rope3_Seg08 0.000000 0.000000 0.000000 0.000000 0.000000 0.000000 10.000000 
Rope3_Seg09 0.000000 0.000000 0.000000 0.000000 0.000000 0.000000 10.000000 
R_rear_hand01 0.000000 0.000000 0.000000 0.000000 0.000000 0.000000 10.000000 
R_rear_hand02 0.000000 0.000000 0.000000 0.000000 0.000000 0.000000 10.000000 
R_rear_hand03 0.000000 0.000000 0.000000 0.000000 0.000000 0.000000 10.000000 
Rope4_Seg01 0.000000 0.000000 0.000000 0.000000 0.000000 0.000000 10.000000 
Rope4_Seg02 0.000000 0.000000 0.000000 0.000000 0.000000 0.000000 10.000000 
Rope4_Seg03 0.000000 0.000000 0.000000 0.000000 0.000000 0.000000 10.000000 
Rope4_Seg04 0.000000 0.000000 0.000000 0.000000 0.000000 0.000000 10.000000 
Rope4_Seg05 0.000000 0.000000 0.000000 0.000000 0.000000 0.000000 10.000000 
Rope4_Seg06 0.000000 0.000000 0.000000 0.000000 0.000000 0.000000 10.000000 
Rope4_Seg07 0.000000 0.000000 0.000000 0.000000 0.000000 0.000000 10.000000 
Rope4_Seg08 0.000000 0.000000 0.000000 0.000000 0.000000 0.000000 10.000000 
Rope4_Seg09 0.000000 0.000000 0.000000 0.000000 0.000000 0.000000 10.000000 
L_rear_hand01 0.000000 0.000000 0.000000 0.000000 0.000000 0.000000 10.000000 
L_rear_hand02 0.000000 0.000000 0.000000 0.000000 0.000000 0.000000 10.000000 
L_rear_hand03 0.000000 0.000000 0.000000 0.000000 0.000000 0.000000 10.000000 
#Beginning of Data. Separated by tabs
#Fr	Tx	Ty	Tz	Rx	Ry	Rz	SF
[MASTER]
3 -39.543320 213.942734 91.164246 0.001660 0.001660 0.001660 235.894241
4 -59.315022 320.914337 136.746460 0.001660 0.001660 0.001660 353.841583
[root]
3 -9.952695 -72.566200 1484.450439 -87.052055 -5.050803 -92.739311 1486.256470
4 6.964985 -65.615906 1467.633301 -83.139694 -2.384829 -95.484032 1469.115845
[chest]
3 -84.512650 -34.090519 0.000000 -0.621233 1.319876 165.395416 91.129311
4 -84.512650 -34.090519 0.000000 0.330556 2.193134 163.879944 91.129311
[L_mid_tent01]
3 27.299122 22.179098 -249.918701 -5.316070 9.177359 52.412598 252.381683
4 27.299124 22.179094 -249.918701 0.688134 4.196850 71.327690 252.381683
[R_mid_tent01]
3 23.228794 24.509907 226.238495 168.622986 -18.794060 72.577217 228.744751
4 23.228794 24.509907 226.238495 166.717987 -19.206221 74.987045 228.744751
[spine01]
3 -0.361383 -0.195265 0.000000 -0.000001 -0.000007 22.052340 0.410763
4 -0.361383 -0.195265 0.000000 -0.000001 -0.000007 22.052340 0.410763
[Bip01_Neck]
3 165.484543 71.581718 0.000119 176.643677 -1.657967 43.431911 180.302734
4 165.484543 71.581718 0.000119 176.643677 -1.657967 43.431911 180.302734
[L_humerus]
3 -13.983130 -135.272980 -120.471481 -3.998671 68.928070 85.994438 181.680161
4 -13.983130 -135.272980 -120.471481 -2.424978 69.717400 87.554886 181.680161
[R_humerus]
3 -13.983309 -135.273102 125.287651 28.916433 -72.939537 66.657265 184.909012
4 -13.983309 -135.273102 125.287651 30.790777 -76.343399 64.697380 184.909012
[weapon_bone]
3 235.964890 -300.705902 0.000000 0.000000 -89.951546 -128.212341 382.234833
4 235.964890 -300.705902 0.000000 0.000000 -89.951546 -128.212341 382.234833
[Bip01_Head]
3 213.436569 185.736679 11.503524 4.962490 2.797845 -43.898739 283.170654
4 213.432755 185.747375 11.366818 4.962491 2.797846 -43.898750 283.169281
[eye_left_bone]
3 -24.626970 125.451866 -64.772606 0.000000 -90.000000 -99.840431 143.318359
4 -24.626970 125.451866 -64.772606 0.000000 -90.000000 -99.840431 143.318359
[eye_right_bone]
3 -24.626970 125.451866 64.327362 0.000000 -89.965736 80.156380 143.117676
4 -24.626970 125.451866 64.327362 0.000000 -89.965736 80.156380 143.117676
[L_forearm]
3 322.776093 0.000000 -0.000119 0.000397 -0.002313 -109.462379 322.776093
4 322.776093 0.000000 -0.000119 0.000398 -0.002313 -109.518860 322.776093
[L_front_hand]
3 241.149185 -0.042021 -3.300071 -176.748077 -1.836176 -27.421757 241.171753
4 241.149185 -0.042021 -3.300071 -174.888504 -1.836994 -27.422298 241.171753
[L_weapon_bone]
3 156.183838 0.000000 0.000000 0.000014 0.000007 0.000001 156.183838
4 156.183838 0.000000 0.000000 0.000014 0.000007 0.000001 156.183838
[L_front_hand01_01]
3 86.095154 20.947098 -0.655860 -0.366594 -0.477154 75.385574 88.609184
4 86.095154 20.947098 -0.655860 -0.364720 -0.478588 74.936234 88.609184
[L_front_hand02_01]
3 86.935165 -11.437475 24.513514 154.399796 -59.883835 -61.369587 91.046425
4 86.935165 -11.437475 24.513514 153.708527 -59.690228 -60.568150 91.046425
[L_front_hand03_01]
3 86.637497 -14.123976 -20.424902 -153.913849 58.118122 -62.702866 90.126129
4 86.637497 -14.123976 -20.424902 -153.279221 57.922546 -61.955151 90.126129
[L_front_hand01_02]
3 71.020905 -0.000179 0.000030 0.000325 -0.002325 -105.936714 71.020905
4 71.020905 -0.000179 0.000030 0.000324 -0.002325 -105.888390 71.020905
[L_front_hand02_02]
3 71.020927 -0.000119 0.000060 0.000325 -0.002325 -105.936714 71.020927
4 71.020927 -0.000119 0.000060 0.000324 -0.002325 -105.888390 71.020927
[L_front_hand03_02]
3 71.020905 -0.000060 0.000060 0.000325 -0.002325 -105.936714 71.020905
4 71.020905 -0.000060 0.000060 0.000324 -0.002325 -105.888390 71.020905
[R_forearm]
3 322.776428 -0.000060 0.000030 0.202064 0.065276 -108.130020 322.776428
4 322.776428 -0.000060 0.000030 0.202037 0.065362 -108.178864 322.776428
[R_front_hand]
3 238.847015 -0.006795 2.210259 -4.555155 -10.645837 -26.316139 238.857239
4 238.847015 -0.006795 2.210259 -6.411763 -10.643535 -26.312113 238.857239
[R_weapon_bone]
3 155.664093 0.002503 -0.000030 0.003487 0.001180 -90.988930 155.664078
4 155.664093 0.002503 -0.000030 0.003487 0.001180 -90.988930 155.664078
[R_front_hand01_01]
3 87.624611 14.231146 22.918642 -154.633499 -59.950619 61.746044 91.683487
4 87.624611 14.231146 22.918642 -153.951385 -59.756744 60.953659 91.683487
[R_front_hand02_01]
3 89.356956 14.367283 -19.491137 154.602661 58.302849 63.744389 92.579636
4 89.356956 14.367283 -19.491137 153.963715 58.112637 62.995499 92.579636
[R_front_hand03_01]
3 87.286232 -22.307278 -0.143439 0.162155 -0.423168 -75.767921 90.091743
4 87.286232 -22.307278 -0.143439 0.156617 -0.426811 -75.329910 90.091743
[R_front_hand01_02]
3 71.020905 0.000060 0.000119 0.002327 -0.000305 104.935226 71.020905
4 71.020905 0.000060 0.000119 0.002328 -0.000303 104.822876 71.020905
[R_front_hand02_02]
3 71.020844 -0.000030 -0.000119 0.002327 -0.000305 104.935226 71.020836
4 71.020844 -0.000030 -0.000119 0.002328 -0.000303 104.822876 71.020836
[R_front_hand03_02]
3 71.020905 0.000000 0.000030 0.002327 -0.000305 104.935226 71.020905
4 71.020905 0.000000 0.000030 0.002328 -0.000303 104.822876 71.020905
[null_rope01_connect]
3 328.732483 0.000000 -0.000238 -147.510651 -81.197701 -170.496078 328.732483
4 328.732483 0.000000 -0.000238 -66.489937 -81.994888 87.607094 328.732483
[Rope1_Seg01]
3 0.000000 0.000000 0.000000 -21.010612 -20.949860 -131.400375 0.000000
4 0.000000 0.000000 0.000000 -17.506399 -18.609329 -136.132202 0.000000
[Rope1_Seg02]
3 139.999863 -0.000179 0.000000 22.114592 5.147310 2.153260 139.999863
4 139.999863 -0.000179 0.000000 10.493811 4.213649 0.547823 139.999863
[Rope1_Seg03]
3 139.999924 0.000060 -0.000060 17.617338 8.372784 0.092109 139.999924
4 139.999924 0.000060 -0.000060 11.224734 6.900091 -0.369926 139.999924
[Rope1_Seg04]
3 139.999924 -0.000060 -0.000119 0.386954 13.833516 -13.634474 139.999924
4 139.999924 -0.000060 -0.000119 5.248030 15.104648 -9.518559 139.999924
[Rope1_Seg05]
3 139.999832 0.000119 -0.000060 17.445581 18.084385 6.081653 139.999832
4 139.999832 0.000119 -0.000060 7.136285 26.305616 -8.768820 139.999832
[Rope1_Seg06]
3 139.999954 0.000119 -0.000060 32.069675 17.093735 27.272642 139.999954
4 139.999954 0.000119 -0.000060 32.763973 20.115379 42.626816 139.999954
[Rope1_Seg07]
3 139.999985 0.000060 0.000000 7.612902 9.994239 3.320450 139.999985
4 139.999985 0.000060 0.000000 9.607299 14.575785 8.422560 139.999985
[Rope1_Seg09]
3 121.602913 0.000119 -0.000089 -89.793175 -1.359789 0.847147 121.602913
4 121.602913 0.000119 -0.000089 -89.793175 -1.359789 0.847147 121.602913
[L_mid_hand01]
3 103.859421 1.038730 8.195221 126.075401 -65.098549 -33.991913 104.187431
4 103.859421 1.038730 8.195221 122.214600 -62.281212 -29.682934 104.187431
[L_mid_hand02]
3 105.572853 -4.139662 -10.864139 -166.035263 42.723965 -69.273842 106.211075
4 105.572853 -4.139662 -10.864139 -163.055786 41.815430 -64.846169 106.211075
[L_mid_hand03]
3 104.641464 17.579376 -3.913581 -7.014418 17.452778 71.596474 106.179977
4 104.641464 17.579376 -3.913581 -8.059162 17.002192 68.062859 106.179977
[null_rope02_connect]
3 328.732849 0.000179 -0.000119 -135.059937 68.126045 19.768549 328.732849
4 328.732849 0.000179 -0.000119 -145.871674 65.389191 12.377427 328.732849
[Rope2_Seg01]
3 0.000040 0.000145 0.000000 -34.904823 -10.474281 -58.131264 0.000150
4 0.000041 0.000141 0.000000 23.551172 10.074796 -42.919567 0.000147
[Rope2_Seg02]
3 139.999741 -0.000060 -0.000119 13.982467 11.554065 2.324708 139.999756
4 139.999741 -0.000060 -0.000119 -2.800215 19.843525 -10.485080 139.999756
[Rope2_Seg03]
3 140.000107 0.000030 0.000000 15.215940 29.248421 3.993936 140.000107
4 140.000107 0.000030 0.000000 -14.967115 49.429001 -31.839258 140.000107
[Rope2_Seg04]
3 139.999802 0.000000 -0.000060 -12.066572 15.417795 -31.848919 139.999802
4 139.999802 0.000000 -0.000060 -121.636208 69.379135 -40.451435 139.999802
[Rope2_Seg05]
3 139.999985 -0.000060 0.000119 0.801094 7.445269 -39.995190 139.999985
4 139.999985 -0.000060 0.000119 -43.834805 2.698711 13.076920 139.999985
[Rope2_Seg06]
3 139.999893 -0.000030 -0.000119 3.035604 2.689688 -10.646899 139.999893
4 139.999893 -0.000030 -0.000119 -5.218321 -1.948212 3.076570 139.999893
[Rope2_Seg07]
3 139.999893 0.000060 -0.000060 0.036187 0.046247 -0.235716 139.999893
4 139.999893 0.000060 -0.000060 -0.652289 -0.312571 0.404050 139.999893
[Rope2_Seg09]
3 121.338966 0.000089 -0.000060 33.793236 -1.359788 -0.847141 121.338966
4 121.338966 0.000089 -0.000060 33.793236 -1.359788 -0.847141 121.338966
[R_mid_hand01]
3 104.680779 11.144459 -10.335981 -17.548510 44.833435 68.572052 105.778534
4 104.680779 11.144459 -10.335981 -19.035433 44.336296 66.455574 105.778534
[R_mid_hand02]
3 104.070427 2.443552 8.231699 51.203640 -66.683899 36.975819 104.424065
4 104.070427 2.443552 8.231699 53.394081 -65.425781 34.575890 104.424065
[R_mid_hand03]
3 106.028137 -11.221827 -5.996406 -176.709671 15.475002 -75.137619 106.788818
4 106.028137 -11.221827 -5.996406 -176.276184 15.379536 -73.491829 106.788818
[spine02]
3 129.756927 0.001550 0.000119 0.412485 -4.039276 -13.704086 129.756927
4 129.756927 0.001550 0.000119 0.438851 -4.036261 -14.034025 129.756927
[spine03]
3 78.614059 0.081490 -4.899006 1.929331 3.818316 16.954147 78.766594
4 78.614052 0.081493 -4.899006 1.943640 3.811042 17.174652 78.766586
[pelvis]
3 169.435242 0.051022 0.000000 -0.062031 -0.179692 15.085137 169.435257
4 169.435242 0.051022 0.000000 -0.062688 -0.179464 15.504308 169.435257
[null_rope03_connect]
3 -1.257226 -2.466202 137.391083 -31.530113 -85.163086 86.284996 137.418976
4 -1.257226 -2.466202 137.391083 -33.122334 -80.360222 85.205139 137.418976
[null_rope04_connect]
3 -1.259640 -2.480268 -137.844437 -31.530113 -85.163086 86.284996 137.872513
4 -1.259640 -2.480268 -137.844437 -33.122334 -80.360222 85.205139 137.872513
[Rope3_Seg01]
3 -0.000020 -0.000051 0.000000 11.589785 19.035179 -95.900261 0.000055
4 -0.000021 -0.000058 0.000000 13.198054 11.167983 -95.984970 0.000062
[Rope3_Seg02]
3 139.999924 -0.000119 0.000060 0.092838 5.167686 5.091915 139.999924
4 139.999924 -0.000119 0.000060 -0.233488 11.837646 6.131041 139.999924
[Rope3_Seg03]
3 139.999924 -0.000119 0.000119 0.386160 5.008686 7.419659 139.999924
4 139.999924 -0.000119 0.000119 1.626010 12.486610 9.938747 139.999924
[Rope3_Seg04]
3 139.999924 0.000119 0.000000 0.449555 5.230300 5.569347 139.999924
4 139.999924 0.000119 0.000000 2.104363 9.300829 2.297075 139.999924
[Rope3_Seg05]
3 139.999924 -0.000238 0.000060 1.237778 3.967854 -8.128135 139.999924
4 139.999924 -0.000238 0.000060 1.916504 1.845582 -9.610684 139.999924
[Rope3_Seg06]
3 139.999893 -0.000119 -0.000060 0.815718 2.094298 -5.307925 139.999893
4 139.999893 -0.000119 -0.000060 1.060723 1.408932 -4.443010 139.999893
[Rope3_Seg07]
3 139.999771 0.000060 -0.000119 0.647252 1.450688 -2.542578 139.999771
4 139.999771 0.000060 -0.000119 0.846426 1.153594 -2.576833 139.999771
[Rope3_Seg08]
3 139.999985 -0.000060 0.000000 0.602628 0.885571 -1.601154 139.999985
4 139.999985 -0.000060 0.000000 0.723790 0.699470 -1.626114 139.999985
[Rope3_Seg09]
3 90.185997 -0.000179 -0.000060 89.793228 -1.359877 -0.847183 90.185997
4 90.185997 -0.000179 -0.000060 89.793228 -1.359877 -0.847183 90.185997
[R_rear_hand01]
3 103.366196 -6.073594 -10.757982 -176.918228 24.486242 -72.002144 104.101845
4 103.366196 -6.073594 -10.757982 -176.027405 24.361639 -69.845337 104.101845
[R_rear_hand02]
3 100.509819 12.039542 -7.992327 -14.131634 36.459908 70.059998 101.543350
4 100.509819 12.039542 -7.992327 -15.526569 35.959644 67.697304 101.543350
[R_rear_hand03]
3 101.539970 5.215704 5.435467 73.022980 -70.158020 19.886856 101.819031
4 101.539970 5.215704 5.435467 74.484840 -68.272476 18.324221 101.819031
[Rope4_Seg01]
3 0.000010 0.000038 -0.000114 -107.967537 22.977016 -125.356789 0.000121
4 0.000010 0.000038 -0.000114 -107.884285 21.263363 -128.234314 0.000121
[Rope4_Seg02]
3 139.999985 0.000060 0.000119 -1.654401 -3.933328 1.959019 139.999985
4 139.999985 0.000060 0.000119 -2.342919 -3.384089 3.124704 139.999985
[Rope4_Seg03]
3 139.999924 0.000000 -0.000238 -1.624648 -4.704090 2.108050 139.999924
4 139.999924 0.000000 -0.000238 -2.531793 -4.566153 3.425088 139.999924
[Rope4_Seg04]
3 139.999985 0.000000 0.000119 -1.354656 -12.770405 0.023875 139.999985
4 139.999985 0.000000 0.000119 -2.199524 -12.771910 1.079118 139.999985
[Rope4_Seg05]
3 139.999802 -0.000060 -0.000119 -0.694070 0.929114 5.171242 139.999802
4 139.999802 -0.000060 -0.000119 -1.729503 5.373264 10.005264 139.999802
[Rope4_Seg06]
3 139.999924 0.000000 0.000060 0.784315 14.667421 7.932679 139.999924
4 139.999924 0.000000 0.000060 -1.145570 13.379432 10.569590 139.999924
[Rope4_Seg07]
3 139.999802 0.000000 0.000000 -0.169500 5.768692 3.484798 139.999802
4 139.999802 0.000000 0.000000 -1.874236 4.114487 4.444526 139.999802
[Rope4_Seg08]
3 139.999924 0.000000 0.000119 -1.832269 2.627807 1.800223 139.999924
4 139.999924 0.000000 0.000119 -2.921383 2.089880 2.516654 139.999924
[Rope4_Seg09]
3 90.185791 0.000060 0.000060 -135.617828 2.228885 0.850567 90.185791
4 90.185791 0.000060 0.000060 -135.617828 2.228885 0.850567 90.185791
[L_rear_hand01]
3 101.696655 -8.392275 -7.654577 -17.565516 -35.113850 115.806488 102.329041
4 101.696655 -8.392275 -7.654577 -21.754835 -32.891220 123.292336 102.329041
[L_rear_hand02]
3 102.726799 -1.568258 5.773216 76.237793 65.389854 163.579773 102.900848
4 102.726799 -1.568258 5.773216 78.924995 58.957420 166.614075 102.900848
[L_rear_hand03]
3 104.552910 9.721220 -10.420293 -174.689285 -24.125307 -113.408821 105.519653
4 104.552910 9.721220 -10.420293 -171.809464 -23.347528 -120.557564 105.519653
